<svg width="24" height="24" viewBox="0 0 24 24" fill="none" xmlns="http://www.w3.org/2000/svg">
<path d="M20.7271 5.09091H19.2726H16.7271V1.09092C16.7271 0.488438 16.2387 0 15.6362 0C15.0337 0 14.5453 0.488438 14.5453 1.09092V5.09091H9.45439V1.09092C9.45439 0.488438 8.96595 0 8.36347 0C7.76098 0 7.27255 0.488438 7.27255 1.09092V5.09091H4.72709H3.27256C2.67008 5.09091 2.18164 5.57934 2.18164 6.18183C2.18164 6.78431 2.67008 7.27275 3.27256 7.27275H3.63622V12C3.63622 16.242 6.81078 19.7563 10.909 20.2925V22.9091C10.9089 23.5116 11.3974 24 11.9998 24C12.6023 24 13.0908 23.5116 13.0908 22.9091V20.2925C17.189 19.7562 20.3635 16.242 20.3635 12V7.27275H20.7272C21.3297 7.27275 21.8181 6.78431 21.8181 6.18183C21.818 5.57934 21.3296 5.09091 20.7271 5.09091ZM18.1817 12C18.1817 15.4087 15.4085 18.1818 11.9998 18.1818C8.59119 18.1818 5.81802 15.4087 5.81802 12V7.27275H18.1817V12Z" fill="#F5F5F5"/>
</svg>
