<svg width="16" height="16" viewBox="0 0 16 16" fill="none" xmlns="http://www.w3.org/2000/svg">
<path d="M1.8201 8.56022C1.72239 7.71337 1.80382 6.89585 2.0253 6.1402C2.7614 3.62898 5.07068 1.78221 7.80989 1.74964V0.10807C7.80989 0.0168712 7.92389 -0.0319852 7.9988 0.0233854L11.3764 2.50529C11.4318 2.54763 11.4318 2.63231 11.3764 2.6714L8.00206 5.1533C7.92389 5.20867 7.81315 5.15982 7.81315 5.06862V3.4303C6.01198 3.45962 4.47463 4.57028 3.81344 6.1402C3.56264 6.73299 3.43562 7.38767 3.47145 8.07491C3.5203 9.01947 3.87532 9.88911 4.43554 10.5926C4.7352 10.9672 4.66354 11.5144 4.27595 11.7978C3.9079 12.0681 3.39328 11.9932 3.10991 11.6349C2.41615 10.7685 1.95364 9.71323 1.8201 8.56022ZM11.5718 5.40736C12.1353 6.10763 12.4903 6.98053 12.5359 7.92509C12.5718 8.61559 12.4415 9.27026 12.1939 9.8598C11.5327 11.4297 9.9954 12.5436 8.19423 12.5697V10.9314C8.19423 10.8402 8.08023 10.7913 8.00532 10.8467L4.62771 13.3286C4.57234 13.3709 4.57234 13.4556 4.62771 13.4947L8.00206 15.9766C8.08023 16.032 8.19097 15.9831 8.19097 15.8919V14.2504C10.9302 14.221 13.2427 12.3743 13.9756 9.8598C14.197 9.10415 14.2752 8.28662 14.1808 7.43978C14.0505 6.28677 13.588 5.23147 12.8942 4.36509C12.6076 4.00681 12.0962 3.93189 11.7282 4.20223C11.3438 4.4856 11.2722 5.03279 11.5718 5.40736Z" fill="#808080"/>
</svg>
