<svg width="20" height="20" viewBox="0 0 20 20" fill="none" xmlns="http://www.w3.org/2000/svg">
<g clip-path="url(#clip0_9_259)">
<path d="M11.7842 10L19.8695 1.91518C20.0435 1.74093 20.0435 1.45861 19.8695 1.28437L18.7164 0.130628C18.6327 0.0471947 18.519 0 18.4008 0C18.2824 0 18.1688 0.0471947 18.0852 0.130628L10.0001 8.21566L1.91508 0.130628C1.74759 -0.0368708 1.45114 -0.0366601 1.28407 0.130628L0.131169 1.28437C-0.043072 1.45861 -0.043072 1.74093 0.131169 1.91518L8.2162 10L0.131169 18.0848C-0.043072 18.2591 -0.043072 18.5414 0.131169 18.7156L1.28428 19.8694C1.36792 19.9528 1.48148 20 1.59989 20C1.7183 20 1.83165 19.9528 1.9153 19.8694L10.0003 11.7843L18.0854 19.8694C18.169 19.9528 18.2828 20 18.401 20C18.5192 20 18.6329 19.9528 18.7166 19.8694L19.8697 18.7156C20.0437 18.5414 20.0437 18.2591 19.8697 18.0848L11.7842 10Z" fill="#BDBDBD"/>
</g>
<defs>
<clipPath id="clip0_9_259">
<rect width="20" height="20" fill="white"/>
</clipPath>
</defs>
</svg>
