<svg width="21" height="21" viewBox="0 0 21 21" fill="none" xmlns="http://www.w3.org/2000/svg">
<path d="M20.3216 0.395874H0.678638C0.304482 0.395874 0 0.700356 0 1.07451V4.09083C0 4.46499 0.304482 4.76947 0.678638 4.76947H20.3214C20.6953 4.76947 21 4.46499 21 4.09083V1.07451C21.0002 0.700356 20.6957 0.395874 20.3216 0.395874Z" fill="#5A5A5A"/>
<path d="M20.3216 8.31335H0.678638C0.304482 8.31335 0 8.61784 0 8.99199V12.0083C0 12.3825 0.304482 12.6869 0.678638 12.6869H20.3214C20.6953 12.6869 21 12.3825 21 12.0083V8.99199C21.0002 8.61784 20.6957 8.31335 20.3216 8.31335Z" fill="#5A5A5A"/>
<path d="M20.3216 16.2307H0.678638C0.304482 16.2307 0 16.5352 0 16.9094V19.9257C0 20.2998 0.304482 20.6043 0.678638 20.6043H20.3214C20.6953 20.6043 21 20.2998 21 19.9257V16.9094C21.0002 16.535 20.6957 16.2307 20.3216 16.2307Z" fill="#5A5A5A"/>
</svg>
