<svg width="15" height="15" viewBox="0 0 15 15" fill="none" xmlns="http://www.w3.org/2000/svg">
<path d="M1.875 4.21878H8.51807C8.61506 4.49285 8.79462 4.73013 9.03202 4.89795C9.26943 5.06577 9.55302 5.15588 9.84375 5.15588C10.1345 5.15588 10.4181 5.06577 10.6555 4.89795C10.8929 4.73013 11.0724 4.49285 11.1694 4.21878H13.125C13.2493 4.21878 13.3685 4.16939 13.4565 4.08148C13.5444 3.99358 13.5938 3.87435 13.5938 3.75003C13.5938 3.62571 13.5444 3.50648 13.4565 3.41857C13.3685 3.33066 13.2493 3.28128 13.125 3.28128H11.1694C11.0724 3.0072 10.8929 2.76992 10.6555 2.60211C10.4181 2.43429 10.1345 2.34418 9.84375 2.34418C9.55302 2.34418 9.26943 2.43429 9.03202 2.60211C8.79462 2.76992 8.61506 3.0072 8.51807 3.28128H1.875C1.75068 3.28128 1.63145 3.33066 1.54354 3.41857C1.45564 3.50648 1.40625 3.62571 1.40625 3.75003C1.40625 3.87435 1.45564 3.99358 1.54354 4.08148C1.63145 4.16939 1.75068 4.21878 1.875 4.21878Z" fill="#111111"/>
<path d="M13.125 10.7813H11.1694C11.0724 10.5072 10.8929 10.2699 10.6555 10.1021C10.4181 9.93429 10.1345 9.84418 9.84375 9.84418C9.55302 9.84418 9.26943 9.93429 9.03202 10.1021C8.79462 10.2699 8.61506 10.5072 8.51807 10.7813H1.875C1.75068 10.7813 1.63145 10.8307 1.54354 10.9186C1.45564 11.0065 1.40625 11.1257 1.40625 11.25C1.40625 11.3743 1.45564 11.4936 1.54354 11.5815C1.63145 11.6694 1.75068 11.7188 1.875 11.7188H8.51807C8.61506 11.9929 8.79462 12.2301 9.03202 12.3979C9.26943 12.5658 9.55302 12.6559 9.84375 12.6559C10.1345 12.6559 10.4181 12.5658 10.6555 12.3979C10.8929 12.2301 11.0724 11.9929 11.1694 11.7188H13.125C13.2493 11.7188 13.3685 11.6694 13.4565 11.5815C13.5444 11.4936 13.5938 11.3743 13.5938 11.25C13.5938 11.1257 13.5444 11.0065 13.4565 10.9186C13.3685 10.8307 13.2493 10.7813 13.125 10.7813Z" fill="#111111"/>
<path d="M13.125 7.03128H6.48193C6.38494 6.7572 6.20538 6.51992 5.96798 6.35211C5.73057 6.18429 5.44698 6.09418 5.15625 6.09418C4.86552 6.09418 4.58193 6.18429 4.34452 6.35211C4.10712 6.51992 3.92756 6.7572 3.83057 7.03128H1.875C1.75068 7.03128 1.63145 7.08066 1.54354 7.16857C1.45564 7.25648 1.40625 7.37571 1.40625 7.50003C1.40625 7.62435 1.45564 7.74358 1.54354 7.83148C1.63145 7.91939 1.75068 7.96878 1.875 7.96878H3.83057C3.92756 8.24285 4.10712 8.48013 4.34452 8.64795C4.58193 8.81577 4.86552 8.90588 5.15625 8.90588C5.44698 8.90588 5.73057 8.81577 5.96798 8.64795C6.20538 8.48013 6.38494 8.24285 6.48193 7.96878H13.125C13.2493 7.96878 13.3685 7.91939 13.4565 7.83148C13.5444 7.74358 13.5938 7.62435 13.5938 7.50003C13.5938 7.37571 13.5444 7.25648 13.4565 7.16857C13.3685 7.08066 13.2493 7.03128 13.125 7.03128Z" fill="#111111"/>
</svg>
