<svg width="12" height="12" viewBox="0 0 12 12" fill="none" xmlns="http://www.w3.org/2000/svg">
<g clip-path="url(#clip0_1_81)">
<path d="M11.7803 2.46973L9.53032 0.219727C9.23735 -0.0732422 8.76274 -0.0732422 8.46977 0.219727L7.60989 1.0796L10.9204 4.39015L11.7803 3.53027C12.0733 3.2373 12.0733 2.7627 11.7803 2.46973Z" fill="black"/>
<path d="M0.0223683 11.068C-0.0413583 11.3236 0.0333605 11.5939 0.219759 11.7803C0.362212 11.9227 0.553743 12 0.750032 12C0.810454 12 0.871602 11.9927 0.932048 11.9777L3.34428 11.3745L0.625532 8.65576L0.0223683 11.068Z" fill="black"/>
<path d="M8.46975 3.02345L7.0796 1.6333C7.0796 1.6333 0.908203 7.80664 0.867188 7.85157L2.25 9.24317L8.46975 3.02345Z" fill="black"/>
<path d="M2.7803 9.75L4.17191 11.1328C4.21733 11.0889 10.3902 4.9204 10.3902 4.9204L9.00003 3.53027L2.7803 9.75Z" fill="black"/>
</g>
<defs>
<clipPath id="clip0_1_81">
<rect width="12" height="12" fill="white"/>
</clipPath>
</defs>
</svg>
