<svg width="12" height="12" viewBox="0 0 12 12" fill="none" xmlns="http://www.w3.org/2000/svg">
<g clip-path="url(#clip0_1_103)">
<path d="M11.9538 5.79232C10.8692 3.60001 8.60769 2.07693 6 2.07693C3.39231 2.07693 1.13077 3.60001 0.0461553 5.79232C-0.0230755 5.93078 -0.0230755 6.09232 0.0461553 6.2077C1.13077 8.40001 3.39231 9.92309 6 9.92309C8.60769 9.92309 10.8692 8.40001 11.9538 6.2077C12.0231 6.06924 12.0231 5.93078 11.9538 5.79232ZM6 8.53847C4.59231 8.53847 3.46154 7.4077 3.46154 6.00001C3.46154 4.59232 4.59231 3.46155 6 3.46155C7.40769 3.46155 8.53846 4.59232 8.53846 6.00001C8.53846 7.4077 7.40769 8.53847 6 8.53847Z" fill="black"/>
<path d="M6 4.38461C5.1 4.38461 4.38462 5.1 4.38462 6C4.38462 6.9 5.1 7.61538 6 7.61538C6.9 7.61538 7.61539 6.9 7.61539 6C7.61539 5.1 6.9 4.38461 6 4.38461Z" fill="black"/>
</g>
<defs>
<clipPath id="clip0_1_103">
<rect width="12" height="12" fill="white"/>
</clipPath>
</defs>
</svg>
